<?xml version="1.0" encoding="utf-8"?>
<!-- Generator: Adobe Illustrator 16.0.0, SVG Export Plug-In . SVG Version: 6.00 Build 0)  -->
<!DOCTYPE svg PUBLIC "-//W3C//DTD SVG 1.1//EN" "http://www.w3.org/Graphics/SVG/1.1/DTD/svg11.dtd" [
	<!ENTITY ns_flows "http://ns.adobe.com/Flows/1.0/">
	<!ENTITY ns_extend "http://ns.adobe.com/Extensibility/1.0/">
	<!ENTITY ns_ai "http://ns.adobe.com/AdobeIllustrator/10.0/">
	<!ENTITY ns_graphs "http://ns.adobe.com/Graphs/1.0/">
]>
<svg version="1.1" id="Layer_5" xmlns:x="&ns_extend;" xmlns:i="&ns_ai;" xmlns:graph="&ns_graphs;"
	 xmlns="http://www.w3.org/2000/svg" xmlns:xlink="http://www.w3.org/1999/xlink" xmlns:a="http://ns.adobe.com/AdobeSVGViewerExtensions/3.0/"
	 x="0px" y="0px" width="864px" height="864px" viewBox="0 0 864 864" enable-background="new 0 0 864 864" xml:space="preserve">
<circle fill="#1C75BC" cx="434.074" cy="437.073" r="429.926"/>
<g>
	<path fill="#009444" d="M838.035,298.312c-0.792,0.167-1.586,0.333-2.378,0.5c0.138,1.111,0.127,2.266,0.435,3.328
		c14.32,49.389,18.653,99.685,14.134,150.862c-0.481,5.442-1.095,9.575-7.086,11.418c-1.989,0.612-3.737,2.855-5.028,4.741
		c-3.925,5.734-7.444,11.748-11.413,17.452c-1.066,1.535-3.5,3.621-4.735,3.295c-7.416-1.959-14.826-2.673-21-9.319
		c-10.02-10.782-15.108-23.71-20.237-36.786c-8.654-22.055-10.823-45.126-8.836-68.541c1.045-12.32-1.216-23.48-6.54-34.648
		c-4.2-8.812-9.246-18.183-2.295-29.698c-4.374,3.448-7.092,5.816-10.057,7.817c-1.223,0.826-3.691,1.708-4.377,1.127
		c-5.74-4.866-16.481-4.963-15.748-16.243c0.083-1.283-1.52-2.866-2.646-4.005c-9.453-9.549-9.72-13.787-1.345-23.884
		c4.821-5.813,2.636-13.283-4.487-15.233c-2.766-0.756-5.529-1.683-8.355-2.025c-10.109-1.226-12.618-4.293-11.907-14.847
		c0.544-8.066,1.702-16.313-5.362-22.587l0.243,0.233c-2.23-3.857-3.532-9.458-6.87-11.238c-9.23-4.92-10.94-13.088-12.413-21.905
		c-1.369-8.204-2.346-16.26-7.602-23.583c-4.606-6.418-7.033-14.387-10.561-21.604c-0.856-1.75-1.904-3.883-3.465-4.73
		c-7.136-3.869-14.433-7.455-21.8-10.862c-1.448-0.669-3.469-0.096-6.584-0.096c2.718,3.354,4.188,5.169,5.971,7.367
		c-2.48,2.302-4.696,4.359-6.187,5.742c12.816,9.716,25.688,19.473,38.829,29.436c-6.264,3.702-14.166,4.885-16.427,13.137
		c-0.161,0.592-2.513,1.037-3.716,0.82c-11.522-2.072-22.598-5.126-28.27-16.885c-4.609-9.559-12.037-15.796-21.631-19.963
		c-5.697-2.475-10.96-5.987-16.723-8.262c-9.205-3.631-13.741-11.32-19.743-20.99c11.05-3.65,21.252-7.021,31.465-10.396
		c-1.126-6.2-5.466-9.907-8.115-6.722c-5.253,6.314-11.436,2.291-17.232,3.62c0.182-3.696,1.663-7.961,0.234-9.47
		c-4.947-5.227-10.635-9.883-16.543-14.043c-10.385-7.311-21.335-13.825-31.654-21.222c-4.807-3.446-7.807-2.96-11.405,1.414
		c-4.964,6.033-11.795,7.307-19.044,4.628c-10.216-3.775-21.414-5.21-30.889-0.566c-12.703,6.226-25.22,6.958-38.324,4.375
		c-6.807-1.341-14.581-2.584-14.75-12.346c-7.581-0.043-14.905-2.317-20.503,4.576c-0.898,1.105-3.599,0.783-5.477,1.049
		c-8.914,1.262-17.832,2.498-26.459,3.703c-0.84,10.69-3.715,13.638-13.647,15.067c-3.32,0.478-6.738,0.515-9.966,1.329
		c-4.722,1.19-9.44,2.554-7.187,9.535c0.472,1.46-1.092,4.896-2.461,5.398c-5.303,1.948-10.868,4.053-16.408,4.277
		c-7.373,0.297-9.557,4.331-9.345,10.269c0.2,5.596-2.422,8.371-6.738,11.321c-4.275,2.923-7.438,7.439-11.239,11.1
		c-5.179,4.988-10.013,10.558-15.916,14.499c-4.737,3.162-10.845,4.27-16.345,6.289c-0.37-0.702-0.74-1.404-1.11-2.105
		c2.523-4.011,5.126-7.975,7.548-12.047c2.608-4.384,1.485-7.27-3.851-6.684c-5.183,0.569-8.006-1.804-10.364-5.855
		c-2.264-3.889-4.827-7.603-8.039-12.61c6.837-5.606,12.872-11.907,20.129-16.081c5.926-3.408,12.458-8.813,10.604-15.507
		c-3.02-10.897,2.739-14.347,10.999-17.103c1.577-0.526,3.03-1.433,4.535-2.174c6.003-2.956,14.14-19.154,0.464-22.81
		c-7.939-2.122,185.681-67.216,331.01,0C728.728,99.215,813,212,838.035,298.312z M753.074,154.157c0,5.11,0.218,9.115-0.044,13.087
		c-0.62,9.447,0.989,17.491,10.713,22.119c1.819,0.865,3.563,4.698,3.161,6.727c-0.534,2.679-2.746,5.705-5.11,7.149
		c-2.443,1.492-5.953,1.182-8.962,1.815c-2.699,0.568-5.354,1.348-10.016,2.546c5.501,2.547,8.947,3.723,11.895,5.663
		c1.806,1.188,3.979,3.552,3.967,5.376c-0.02,2.966-1.407,5.984-5.772,5.542c-3.497-0.354-7.06-0.072-11.584-0.072
		c0.849,4.18,1.361,7.167,2.074,10.105c1.18,4.852,3.395,9.641,3.568,14.513c0.476,13.414,9.458,22.52,15.646,33.044
		c0.709,1.207,2.524,1.763,4.768,3.241c0.194-3.279,0.428-5.557,0.445-7.837c0.059-8.639-0.126-17.283,0.112-25.915
		c0.239-8.671,2.077-9.895,10.771-8.019c1.133,0.244,2.288,0.38,3.172,0.523c5.52-16.208-9.9-24.16-14.257-36.48
		c7.598-1.745,8.854-3.988,7.401-10.95c-0.916-4.392-1.076-8.937-1.716-13.394c-0.262-1.825-0.395-3.98-1.438-5.331
		C765.891,169.864,759.656,162.313,753.074,154.157z"/>
	<path fill-rule="evenodd" clip-rule="evenodd" fill="#009444" d="M491.307,796.537c-9.887,1.649-13.95-3.308-18.302-8.343
		c-11.148-12.899-22.633-25.482-38.181-33.415c-2.328-1.187-4.543-2.74-6.499-4.478c-3.566-3.168-8.662-4.604-9.066-11.062
		c-0.606-9.714,0.627-18.711,6.832-26.314c1.602-1.963,4.971-2.839,7.7-3.462c7.701-1.761,10.234-7.39,10.727-14.204
		c0.446-6.183,0.094-12.424,0.094-19.529c-4.076-0.291-8.581-1.694-12.455-0.683c-10.616,2.769-19.612-1.602-29.165-4.626
		c-9.078-2.875-15.138-7.743-18.236-17.113c-4.763-14.402-17.312-21.482-29.833-27.355c-13.163-6.176-27.068-10.858-40.862-15.569
		c-10.147-3.465-19.131-8.144-26.918-15.796c-5.713-5.615-13.005-9.596-19.401-14.552c-4.039-3.13-8.408-6.226-11.317-10.278
		c-1.812-2.523-1.197-6.8-1.633-10.295c-0.718-5.766,0.136-12.341-2.383-17.158c-8.833-16.893-15.291-34.497-19.537-53.008
		c-0.353-1.541-1.357-2.932-3.229-4.269c-3.697,8.517,0.137,16.902,2.169,24.781c2.118,8.211,6.817,15.757,10.394,23.607
		c-9.365-1.379-15.924-8.141-18.885-16.611c-7.884-22.553-15.338-45.349-21.071-68.516c-2.257-9.125,0.412-19.498,1.007-29.292
		c1.708-28.093,10.859-53.25,29.342-74.829c1.345-1.571,1.488-4.879,1.043-7.156c-2.814-14.413-1.635-28.598,1.963-42.66
		c2.786-10.889,6.544-21.582,8.526-32.604c1.367-7.604,1.061-15.674,0.389-23.44c-1-11.588-9.55-16.722-19.396-20.361
		c-6.95-2.568-13.672-5.835-20.744-7.97c-7.697-2.322-8.91-8.143-9.979-14.652c5.809,2.894,11.297,5.626,17.038,8.485
		c2.832-6.608,4.848-11.692,7.163-16.636c4.292-9.163,11.134-13.273,20.47-10.543c7.182,2.1,9.777-0.914,11.259-6.686
		c1.184-4.615,3.647-6.598,8.576-6.771c7.917-0.278,15.793-1.589,23.71-2.002c10.636-0.555,13.364,1.675,15.744,11.992
		c0.751,3.259,2.104,6.686,1.704,9.848c-1.179,9.318,3.765,16.149,9.709,21.41c14.715,13.024,30.28,25.089,45.534,37.501
		c0.475,0.386,1.289,0.356,2.132,0.568c2.274-4.489,1.309-7.935-2.936-10.245c-4.601-2.504-6.065-6.621-7.72-11.328
		c-1.477-4.199-5.298-7.574-8.351-11.669c3.331-7.253,10.201-8.708,17.614-8.287c1.827,0.104,3.609,2.506,5.252,4.025
		c3.767,3.482,8.175,6.577,10.95,10.742c3.286,4.933,5.549,10.687,7.43,16.358c1.01,3.047-0.065,6.727,0.483,10.007
		c0.341,2.046,1.955,3.879,2.998,5.808c1.96-1.067,4.633-1.669,5.708-3.315c1.484-2.271,1.987-5.286,2.514-8.058
		c1.371-7.21,1.285-7.227,9.128-6.731c4.189,6.458-1.577,16.734,7.185,20.917c3.656,1.745,8.84,0.29,13.64,0.29
		c-5.888-6.765-11.013-12.652-15.979-18.358c7.876-10.744,11.428-11.845,23.418-6.338c9.129,4.192,18.063,8.888,26.728,13.968
		c2.565,1.504,3.739,5.234,5.873,7.66c3.648,4.146,6.841,9.803,11.501,11.711c8.813,3.608,12.527,10.489,15.46,16.64
		c-2.759,6.685-4.184,12.964-7.723,17.647c-2.115,2.8-8.009,5.005-11.394,4.174c-11.427-2.806-22.491-7.088-34.431-11.05
		c8.565-5.363,16.368-11.653,12.749-23.272c-3.028-9.721-12.235-10.103-21.11-12.596c2.17,2.83,3.792,4.942,6.37,8.303
		c-5.556,4.921-10.864,9.932-16.497,14.546c-10.435,8.549-20.957,17.185-26.917,29.526c-3.94,8.158-6.143,17.292-0.684,25.879
		c1.467,2.307,4.501,4.027,7.184,5.054c3.987,1.525,8.347,2.043,12.47,3.26c6.877,2.03,11.073,5.198,11.165,13.939
		c0.083,7.962,6.196,14.083,13.869,19.417c1.066-6.543,1.806-12.354,3.005-18.067c1.157-5.51,2.789-10.921,4.333-16.838
		c-7.99-10.531-4.423-23.896-4.791-36.447c-0.037-1.271,7.649-4.803,10.415-3.756c9.6,3.634,20.061,5.871,26.864,15.364
		c2.174,3.032,8.476,3.05,12.842,4.582c5.033,1.766,10.855,2.611,14.848,5.748c9.171,7.21,17.44,15.565,26.065,23.467
		c0.528,0.483,1.173,0.99,1.41,1.619c5.837,15.48,21.013,21.84,31.679,32.599c3.061,3.087,5.5,6.791,8.433,10.475
		c-18.797,8.178-31.138-4.257-35.531-21.29c-6.362,2.503-12.686,6.052-19.449,7.414c-11.394,2.292-20.22,7.785-27.22,16.621
		c0.329,0.616,0.657,1.233,0.984,1.851c3.158-1.839,6.55-3.372,9.43-5.575c8.094-6.191,12.731-4.861,15.982,4.537
		c0.513,1.481,2.776,3.019,4.432,3.288c2.525,0.412,5.402,0.249,7.814-0.584c4.379-1.511,5.846,0.541,7.438,4.122
		c1.896,4.263-0.116,5.921-3.371,7.848c-7.75,4.588-15.317,9.484-23.848,14.811c-10.137-3.396-10.423-3.166-17.272,7.214
		c-4.027,6.104-6.873,12.509-13.201,17.694c-8.686,7.115-13.117,18.981-13.082,30.193c0.034,10.911-5.47,16.278-12.851,21.982
		c-6.142,4.746-12.472,9.742-17.076,15.862c-5.521,7.336-6.578,15.813-1.764,24.827c2.574,4.82,2.935,10.823,4.188,15.862
		c-6.681,4.46-10.965,3.702-14.311-2.628c-2.116-4.001-5.093-7.544-7.636-11.324c-7.773-11.565-23.379-15.594-36.507-10.554
		c-4.14,1.59-9.906,1.358-14.162-0.171c-21.24-7.635-38.77,1.927-43.18,24.241c-1.264,6.398-0.168,13.265-0.147,19.916
		c0.001,0.479-0.007,0.974,0.102,1.435c2.103,8.906,24.686,20.309,32.706,16.268c1.938-0.977,3.392-3.216,4.674-5.138
		c4.438-6.646,13.75-8.728,20.525-5.002c3.592,1.976,4.848,4.426,3.894,8.111c-1.485,5.732-2.802,11.549-4.857,17.083
		c-2.521,6.79-1.012,8.955,6.188,9.372c6.614,0.382,13.355,1.119,19.709,2.891c11.616,3.239,14.225,9.326,10.932,20.985
		c-1.156,4.094-2.74,10.399-0.737,12.577c4.451,4.84,10.95,7.875,16.832,11.269c1.475,0.851,3.951-0.204,5.662,0.435
		c11.858,4.425,19.941-1.407,28.084-9.09c8.632-8.145,18.629-12.312,30.404-5.554c4.468,2.564,8.952,2.217,13.552-0.504
		c2.336-1.38,5.377-1.828,8.162-2.147c13.02-1.49,26.052-2.892,39.104-4.07c2.484-0.224,5.389,0.096,7.565,1.208
		c19.805,10.114,40.817,13.436,62.761,11.408c5.362-0.496,9.338,0.975,12.21,5.489c0.255,0.398,0.735,0.667,0.946,1.08
		c7.776,15.286,20.538,15.36,34.616,11.33c12.379-3.545,24.812-6.917,37.084-10.803c9.368-2.968,13.763,4.032,20.46,8.698
		c-4.232,6.169-7.951,11.969-12.051,17.486c-8.556,11.519-15.085,23.733-15.903,38.512c-0.131,2.374-2.31,5.208-4.342,6.819
		c-36.689,29.087-76.661,52.852-120.902,68.078c-26.8,9.226-54.898,14.707-82.478,21.612c-5.735,1.438-8.628-4.263-6.409-11.215
		C488.329,809.354,489.442,803.883,491.307,796.537z"/>
	<path fill-rule="evenodd" clip-rule="evenodd" fill="#009444" d="M443.735,189.618c-2.969,8.337-5.938,16.674-9.161,25.724
		c-4.562-2.785-9.07-4.989-12.932-8.018c-6.821-5.349-7.466-10.476-4.76-18.748c1.67-5.108,1.854-10.703,2.955-17.666
		c11.068-8.128,22.931-8.902,26.963,0.831c2.802-1.611,6.029-2.595,7.986-4.739c10.654-11.672,31.584-14.545,45.178-6.633
		c7.347,4.276,15.344,7.56,23.304,10.629c15.49,5.974,26.854,17.272,37.893,28.89c3.851,4.053,1.971,16.452-2.58,20.346
		c-4.122,3.527-5.829,7.469-5.965,12.953c-0.252,10.05-1.579,20.068-2.098,30.118c-0.34,6.569,2.657,11.407,8.993,13.858
		c4.322,1.672,8.648,3.336,12.966,6.691c-10.335,3.358-20.652,6.773-31.032,9.992c-1.168,0.363-2.966,0.018-3.993-0.691
		c-7.902-5.46-19.336-6.922-21.626-18.866c-0.154-0.804-1.017-1.858-1.772-2.102c-9.258-2.978-9.417-10.845-10.011-18.446
		c-0.557-7.145-2.488-13.366-8.911-17.724c-10.639-7.217-21.078-14.731-31.493-22.271c-8.232-5.96-15.892-12.458-16.933-23.896
		C445.716,189.773,444.726,189.695,443.735,189.618z"/>
	<path fill-rule="evenodd" clip-rule="evenodd" fill="#009444" d="M698.77,221.036c0,6.342,0,12.684,0,21.04
		c-11.336-4.821-20.527-8.73-31.746-13.502c6.089,7.27,10.742,12.824,16.043,19.154c-8.697,1.624-19.802-3.304-22.669-9.892
		c-5.556-12.774-10.394-25.862-15.758-39.402c3.925-4.029,7.562-3.679,12.89,0.974c5.401,4.717,12.558,7.483,19.078,10.849
		c7.388,3.815,14.923,7.347,22.4,11.008C699.013,221.269,698.77,221.036,698.77,221.036z"/>
	<path fill-rule="evenodd" clip-rule="evenodd" fill="#009444" d="M574.355,213.592c2.92-2.55,6.026-4.919,8.723-7.688
		c5.872-6.033,17.76-5.256,22.231,1.768c0.632,0.992,0.539,2.644,0.351,3.928c-1.478,10.032-6.248,18.339-13.49,25.324
		c-2.908,2.804-10.424,1.642-13.146-3.366c-3.28-6.039-4.995-12.928-7.388-19.449C572.542,213.937,573.449,213.765,574.355,213.592z
		"/>
	<path fill-rule="evenodd" clip-rule="evenodd" fill="#009444" d="M401.309,581.5c3.823-1.242,8.018-4.184,11.406-3.441
		c18.116,3.967,36.038,8.827,54.001,13.472c1.546,0.398,2.916,1.475,4.291,2.195c-1.593,8.64-13.33,13.168-20.909,8.29
		c-4.419-2.845-8.426-6.77-13.233-8.479c-10.488-3.73-21.368-6.36-32.092-9.423c-1.05-0.3-2.132-0.488-3.199-0.728
		C401.485,582.758,401.397,582.129,401.309,581.5z"/>
	<path fill-rule="evenodd" clip-rule="evenodd" fill="#009444" d="M513.149,607.881c-12.478,3.615-23.851,5.104-34.914-0.592
		c-1.969-1.014-3.887-3.796-4.101-5.935c-0.131-1.326,2.758-3.615,4.711-4.34c3.314-1.229,6.934-1.795,10.476-2.224
		c5.209-0.63,10.462-2.441,12.883,5.571C503.13,603.431,508.812,605.062,513.149,607.881z"/>
</g>
</svg>
